<svg width="158" height="158" viewBox="0 0 158 158" fill="none" xmlns="http://www.w3.org/2000/svg">
<path fill-rule="evenodd" clip-rule="evenodd" d="M72.7165 1.54894C68.6698 3.45931 66.8251 5.33908 64.9628 9.45078C60.3259 19.6886 67.8466 31.2058 79.1688 31.2058C95.8377 31.2058 100.793 8.60029 85.6694 1.55166C81.2322 -0.516427 77.0946 -0.517107 72.7165 1.54894ZM84.4387 6.728C88.0521 8.93274 89.4743 11.8506 89.1789 16.4539C88.9581 19.8932 88.6199 20.7029 86.5368 22.7887C82.1274 27.2022 76.0255 27.177 71.7181 22.7281C69.7362 20.6818 69.3728 19.7878 69.1568 16.4267C68.9598 13.3544 69.2057 12.0328 70.2958 10.2945C73.27 5.55187 79.8093 3.90256 84.4387 6.728ZM43.5667 16.4641C41.6459 17.87 42.5683 19.8368 46.0267 21.7084L49.2047 23.4284L46.0186 25.2381C38.7682 29.356 30.0778 38.181 25.0402 46.5424C21.7006 52.0845 18.2408 61.6506 17.0807 68.547C15.7271 76.5977 15.725 79.0988 17.0705 80.4463C19.4654 82.8427 21.4371 81.1411 21.4371 76.6793C21.4371 72.5852 22.9863 64.6419 24.795 59.4642C28.1686 49.807 34.9925 40.2042 43.0179 33.8212C48.2538 29.6558 49.8343 28.9066 48.6287 31.1609C47.3383 33.5757 47.7655 35.8988 49.585 36.3556C50.4979 36.5847 51.5024 36.6133 51.8176 36.4182C52.1327 36.2231 53.7322 33.1019 55.3725 29.4824C57.4569 24.8812 58.1647 22.6051 57.7246 21.9157C57.2403 21.157 46.0403 15.5694 45.0045 15.5694C44.8864 15.5694 44.2391 15.9718 43.5667 16.4641ZM101.298 21.223C99.0816 22.8458 100.341 24.5787 106.003 27.6978C116.553 33.5098 124.31 41.1336 129.702 50.9866C132.541 56.1738 135.252 63.767 135.927 68.4212L136.395 71.6566L134.677 70.0712C132.475 68.0391 129.861 68.2879 129.54 70.56C129.364 71.8075 130.38 73.261 133.937 76.8485C136.481 79.415 138.982 81.5143 139.495 81.5143C140.009 81.5143 142.553 79.4619 145.149 76.9532C148.895 73.3331 149.826 72.0359 149.667 70.6647C149.354 67.9732 146.755 67.9949 143.954 70.713L141.655 72.9428V71.197C141.655 67.2444 138.2 56.1221 135.115 50.1422C128.597 37.5114 118.916 28.0391 106.297 21.9456C102.353 20.0414 102.821 20.1087 101.298 21.223ZM65.4246 34.6023C61.6347 35.7445 58.8914 38.0498 57.1432 41.5626C55.5117 44.8394 55.3969 45.7103 55.3969 54.8277C55.3969 71.0604 54.766 70.6375 78.9753 70.6341C103.715 70.6307 103.283 70.9455 102.839 53.2627C102.618 44.4539 102.473 43.5661 100.8 40.7162C98.9987 37.6501 95.5986 35.2108 91.9133 34.3419C90.7702 34.0727 88.4922 34.431 85.9921 35.2747C80.9422 36.977 77.1917 36.9804 72.3769 35.2849C68.2297 33.8246 68.0599 33.8083 65.4246 34.6023ZM71.0185 40.4612C75.1711 41.9256 82.7312 41.9093 87.1908 40.4265C90.2364 39.4143 91.1098 39.3626 92.8703 40.0927C96.7933 41.7189 97.5017 43.9679 97.5045 54.8066C97.5072 63.6664 97.3978 64.5291 96.1936 65.1743C94.4291 66.1192 63.9086 66.1192 62.1441 65.1743C60.9412 64.5298 60.8305 63.6664 60.8305 54.9426C60.8305 44.4465 61.4282 42.2288 64.7447 40.4279C67.0886 39.1552 67.3169 39.1559 71.0185 40.4612ZM16.1821 89.0076C7.17732 94.1764 5.75441 107.137 13.4484 113.899C17.0182 117.037 21.3827 118.503 25.6488 117.997C35.5535 116.822 42.1947 106.408 38.7675 97.4241C35.1358 87.9055 24.8072 84.057 16.1821 89.0076ZM127.725 88.221C121.955 90.8452 118.046 97.7864 118.791 104.086C119.965 114 130.369 120.648 139.344 117.217C146.005 114.671 149.764 109.374 149.79 102.497C149.824 93.7855 143.104 86.9368 134.553 86.968C132.061 86.9769 129.379 87.4698 127.725 88.221ZM29.5874 93.7067C34.0844 96.8577 35.5752 102.543 33.1519 107.3C31.4973 110.548 28.8987 112.243 24.9961 112.618C15.2469 113.555 9.82416 102.081 16.7438 95.1547C20.2261 91.6685 25.7853 91.0417 29.5874 93.7067ZM139.957 93.7781C142.951 95.5994 144.636 98.8946 144.577 102.815C144.463 110.374 136.34 115.099 129.478 111.596C126.232 109.94 124.54 107.339 124.165 103.433C123.319 94.617 132.304 89.1232 139.957 93.7781ZM8.19272 122.23C4.90473 123.749 2.83521 125.901 1.43335 129.261C-0.118615 132.979 -0.0588452 150.063 1.51757 153.389C3.40778 157.375 4.91492 157.657 24.3019 157.654C40.3269 157.652 41.6235 157.56 43.7215 156.28C47.4211 154.022 48.1105 151.323 47.794 140.341C47.5576 132.14 47.3077 130.399 46.0111 127.914C43.1177 122.374 37.041 119.897 31.2141 121.884C27.1675 123.264 20.1194 123.304 16.9177 121.965C13.7255 120.63 11.5106 120.697 8.19272 122.23ZM119.34 121.673C116.31 122.888 113.773 125.146 112.266 127.971C110.889 130.552 110.755 131.748 110.754 141.458C110.752 151.213 110.872 152.275 112.175 154.035C114.744 157.502 115.555 157.636 134.081 157.647C158.26 157.661 157.956 157.869 157.956 141.341C157.956 128.706 156.511 125.171 150.145 122.23C146.827 120.697 144.612 120.63 141.42 121.965C140.079 122.526 137.024 122.985 134.631 122.985C132.237 122.985 128.98 122.526 127.392 121.965C124.143 120.818 121.694 120.729 119.34 121.673ZM17.7015 127.664C21.6992 128.734 27.0839 128.579 32.0611 127.252C35.997 126.202 36.6457 126.186 38.2852 127.095C41.6629 128.971 42.4902 131.855 42.4908 141.768C42.4922 148.507 42.264 150.882 41.5597 151.467C40.9022 152.013 35.5365 152.188 23.3911 152.06L6.15513 151.878L5.96767 141.46L5.77954 131.043L8.1805 128.64C10.7567 126.061 11.4454 125.99 17.7015 127.664ZM126.99 127.411C128.824 127.968 132.061 128.424 134.184 128.424C136.306 128.424 139.543 127.968 141.377 127.411C146.299 125.917 147.633 126.113 150.231 128.713L152.558 131.043L152.37 141.46L152.183 151.878L134.947 152.06C122.801 152.188 117.436 152.013 116.778 151.467C116.076 150.883 115.846 148.528 115.846 141.915C115.846 132.403 116.563 129.426 119.321 127.493C121.268 126.128 122.714 126.113 126.99 127.411ZM58.4533 130.821C55.8384 131.724 53.6555 132.471 53.6018 132.482C53.5482 132.494 53.3186 132.988 53.0911 133.582C52.8533 134.202 54.0073 137.238 55.8038 140.72C58.3501 145.655 59.2174 146.779 60.4767 146.779C63.0637 146.779 63.7769 145.246 62.5536 142.316C61.9695 140.916 61.5749 139.689 61.6761 139.588C61.7773 139.486 63.692 139.865 65.9299 140.43C71.7119 141.888 86.295 141.885 92.4132 140.424C99.1535 138.814 104.817 136.622 105.268 135.448C105.756 134.174 104.529 131.823 103.375 131.823C102.894 131.823 100.274 132.581 97.5527 133.507C94.8325 134.433 89.9647 135.544 86.7365 135.974C76.829 137.296 60.4373 135.368 66.9936 133.652C68.0748 133.369 68.3506 132.838 68.1822 131.363C67.9906 129.695 67.6503 129.426 65.5849 129.311C64.2774 129.239 61.0682 129.918 58.4533 130.821Z" fill="#B62533"/>
</svg>
