<svg width="155" height="155" viewBox="0 0 155 155" fill="none" xmlns="http://www.w3.org/2000/svg">
<path fill-rule="evenodd" clip-rule="evenodd" d="M26.296 0.374046C22.2018 1.33794 18.8851 5.26506 18.5717 9.52043C18.3955 11.9105 18.9676 14.0886 20.2912 16.0678C21.3864 17.7056 24.1065 19.852 25.3187 20.0353C25.9025 20.1235 25.9231 20.3582 25.9231 26.9006V33.6747L23.8077 34.0371C17.9329 35.0433 12.6921 37.8794 8.3443 42.4044C4.45919 46.4484 2.13919 50.8795 1.01198 56.4104C-0.861372 65.6024 1.89561 74.8131 8.54647 81.5842C14.2868 87.4282 20.6575 90.1157 28.794 90.126C33.4186 90.1317 36.7153 89.4076 40.7128 87.5076C48.5686 83.7741 53.9604 77.2515 56.252 68.7088L56.7476 66.8616L62.3384 71.2257C67.2682 75.0737 67.9219 75.6846 67.8669 76.3942C67.8324 76.8369 67.7139 78.052 67.6033 79.0947C66.6384 88.1822 77.6219 93.6548 84.5777 87.5523C91.5894 81.4006 87.1216 69.7499 77.7507 69.7499C75.8401 69.7499 72.5516 70.6773 72.1478 71.3302C72.0517 71.4854 71.7997 71.6125 71.5876 71.6125C71.3757 71.6125 68.0179 69.1246 64.1259 66.0837L57.0498 60.5552L56.8519 58.5719C56.4321 54.3706 54.7585 49.8438 52.2479 46.1199C51.473 44.9702 50.8765 43.9321 50.9224 43.8128C51.0496 43.4821 62.3837 33.8662 62.646 33.8662C62.7723 33.8662 62.9706 34.3756 63.0869 34.9986C63.8007 38.8221 66.8409 44.3675 70.0805 47.7559C74.9716 52.8716 80.7434 55.7542 87.7345 56.5741C92.784 57.1659 97.8241 56.2851 102.761 53.9481L105.567 52.6201L111.044 59.9268C114.057 63.9458 116.643 67.391 116.792 67.5827C116.982 67.827 116.584 68.087 115.464 68.4497C107.343 71.0804 100.301 77.8648 97.5636 85.6934C96.2113 89.5616 95.7842 92.5058 95.9725 96.6664C96.0795 99.0366 96.3642 101.22 96.7341 102.511L97.3246 104.57L92.166 108.443L87.0074 112.315L85.5 110.157C81.2592 104.089 74.7166 99.8464 67.4758 98.4701C64.3359 97.8731 58.9993 98.0005 55.9093 98.7461C44.9808 101.383 36.6911 109.894 34.5428 120.683C34.3442 121.679 34.123 122.8 34.0508 123.174L33.9199 123.853H27.3328H20.7457L20.0715 122.228C18.7412 119.021 15.3956 116.546 11.8245 116.127C5.43379 115.376 -0.239743 121.045 0.511531 127.431C1.40756 135.048 10.039 139.027 16.4215 134.765C18.0607 133.671 20.2087 130.953 20.3922 129.742C20.4804 129.158 20.7152 129.138 27.2627 129.138H34.042L34.4047 131.252C35.3463 136.74 37.8966 141.704 41.9077 145.855C47.2769 151.411 53.5679 154.239 61.2807 154.562C64.1622 154.683 65.4973 154.592 67.781 154.119C77.8613 152.033 85.9177 144.852 89.2234 135.006L89.9995 132.695L98.3052 136.692C105.237 140.028 106.592 140.782 106.498 141.255C106.436 141.566 106.368 142.976 106.347 144.387C106.314 146.577 106.424 147.198 107.097 148.615C108.544 151.662 111.179 153.705 114.544 154.39C119.068 155.312 123.726 152.915 125.768 148.615C126.425 147.23 126.556 146.528 126.556 144.387C126.556 142.242 126.425 141.541 125.756 140.115C123.105 134.465 115.9 132.371 110.863 135.786L109.801 136.506L100.293 131.925L90.7843 127.344L90.5985 125.07C90.4963 123.82 90.2005 121.777 89.9412 120.532C89.6819 119.286 89.4507 117.973 89.4277 117.613C89.3945 117.102 90.4821 116.136 94.4346 113.165L99.4838 109.369L100.63 111.1C103.116 114.855 107.642 118.848 111.748 120.91C116.11 123.101 122.206 124.142 127.187 123.548C130.432 123.162 134.132 122.116 136.529 120.908C142.454 117.921 147.867 112.183 150.285 106.324C152.006 102.154 152.226 100.899 152.219 95.3172C152.212 90.5796 152.147 89.9741 151.376 87.466C147.79 75.7948 137.867 67.946 125.658 67.1234L122.815 66.932L116.299 58.2536C112.716 53.4807 109.784 49.5291 109.784 49.4723C109.784 49.4156 110.47 48.6325 111.308 47.7327C115.382 43.3571 118.169 37.3968 118.739 31.8415C118.846 30.7961 118.973 29.9406 119.022 29.9406C119.071 29.9406 122.724 31.6977 127.14 33.8451L135.17 37.7495L134.867 38.5452C134.701 38.9828 134.565 40.2103 134.565 41.2729C134.565 46.8814 139.099 51.4548 144.65 51.443C148.872 51.4342 152.14 49.4234 153.97 45.708C154.846 43.9297 154.963 43.403 154.959 41.2557C154.956 39.1181 154.834 38.5739 153.964 36.8086C151.323 31.4474 145.071 29.5211 139.663 32.4016L137.927 33.3263L128.355 28.7016C123.09 26.1581 118.747 23.9356 118.703 23.7626C116.858 16.495 114.734 12.4716 110.565 8.34546C106.882 4.70158 102.683 2.31481 97.4379 0.884376C93.968 -0.0616975 87.3223 -0.0532425 83.7947 0.902192C75.5905 3.12409 69.069 8.39046 65.3287 15.8138C63.9376 18.575 62.7887 22.3593 62.4874 25.1731L62.2704 27.1996L55.294 33.1753C51.4573 36.4616 48.0297 39.3787 47.6777 39.6574C47.063 40.1439 46.9602 40.1097 45.0929 38.8016C44.0234 38.0524 42.4006 37.062 41.4865 36.6008C38.7981 35.2447 36.725 34.6142 31.8916 33.6835L31.2116 33.5527V26.9707V20.3886L32.8383 19.715C34.8598 18.8776 37.1314 16.6865 38.0495 14.6884C41.6173 6.92197 34.6298 -1.58786 26.296 0.374046ZM30.8879 5.70805C31.4579 5.99825 32.3418 6.758 32.8522 7.39637C33.6452 8.38774 33.7803 8.80869 33.7803 10.2871C33.7803 12.4218 32.8553 13.9612 31.0406 14.8466C26.7713 16.9296 22.2552 12.7382 24.0766 8.38291C25.1993 5.69748 28.4002 4.44038 30.8879 5.70805ZM96.6869 6.05894C104.946 8.41431 111.097 14.7376 113.151 22.9841C113.688 25.1359 113.764 26.1379 113.636 29.3255C113.408 35.0128 111.82 39.2355 108.409 43.2273C106.366 45.6189 106.274 45.6304 106.053 43.5169C105.639 39.5614 103.159 36.9481 99.1834 36.278C97.7887 36.0428 94.4095 35.9607 89.2963 36.0371C82.0005 36.1461 81.4342 36.195 79.9815 36.8415C77.2303 38.066 75.5564 40.4374 75.1847 43.6368L74.9795 45.4048L74.0677 44.5427C71.7882 42.3863 69.5072 38.4882 68.3507 34.7721C67.7514 32.8467 67.6468 31.8735 67.6535 28.2797C67.6601 24.5021 67.7475 23.7949 68.4743 21.6364C71.3757 13.016 78.191 7.0639 86.9714 5.48188C89.2884 5.06425 94.2285 5.35777 96.6869 6.05894ZM88.1766 10.7217C86.0854 11.2592 84.9842 11.8888 83.4502 13.4243C81.4801 15.3962 80.6805 17.2337 80.5342 20.1247C80.3656 23.4591 81.1559 25.5403 83.4683 27.8509C87.9421 32.3213 95.1925 31.7581 98.9534 26.6479C100.244 24.894 100.787 23.1185 100.809 20.5771C100.833 17.9077 99.9836 15.703 98.1514 13.6764C95.8622 11.1444 91.5271 9.86015 88.1766 10.7217ZM92.7335 16.0185C96.5944 17.7709 96.7857 23.0381 93.0644 25.1281C92.1415 25.6466 91.5546 25.7547 90.2515 25.6466C87.5411 25.4222 85.8989 23.7813 85.6744 21.0729C85.3417 17.0649 89.1035 14.3713 92.7335 16.0185ZM147.59 36.9638C148.776 37.7514 149.977 39.915 149.977 41.2645C149.977 42.4702 148.83 44.6979 147.838 45.419C146.168 46.6329 143.487 46.6323 141.859 45.4181C140.325 44.2733 139.853 43.3085 139.853 41.3179C139.853 39.2108 140.567 37.8745 142.237 36.8572C143.607 36.0226 146.252 36.0751 147.59 36.9638ZM32.4204 39.0193C41.452 40.4769 48.8602 47.2435 51.1989 56.1709C51.975 59.1336 52.0351 64.2402 51.3292 67.2339C50.6302 70.1975 48.7583 73.8954 46.5994 76.5769C45.5885 77.8325 44.6366 78.8598 44.484 78.8598C44.3311 78.8598 44.2063 78.2655 44.2063 77.539C44.2063 74.5528 42.4889 71.8468 39.7361 70.4961L38.0111 69.6497H28.794C19.8107 69.6497 19.5385 69.6672 18.0658 70.3454C17.2348 70.728 16.1638 71.4075 15.6857 71.8553C14.3787 73.0792 13.388 75.4125 13.3847 77.2745C13.3829 78.1462 13.2572 78.8598 13.1052 78.8598C12.9532 78.8598 12.2753 78.2317 11.5987 77.4638C6.37575 71.5343 4.39935 63.6039 6.2854 56.1432C6.54892 55.1014 7.3972 52.9583 8.17083 51.3805C9.35093 48.9741 10.0182 48.0688 12.3107 45.7629C17.8945 40.1469 24.8841 37.803 32.4204 39.0193ZM100.137 42.1939C100.791 42.8891 100.88 43.2913 100.972 45.9465L101.075 48.9206L100.066 49.4445C97.8716 50.5827 95.4316 51.1253 91.803 51.2817C87.891 51.4508 85.4347 51.0912 82.2081 49.877L80.4705 49.2232V46.0607C80.4705 43.1053 80.5191 42.8492 81.2124 42.1568L81.954 41.4155H90.6788H99.4037L100.137 42.1939ZM26.1255 44.2721C23.0525 45.0152 20.3109 47.5364 19.1057 50.7279C18.2405 53.019 18.3856 56.3171 19.4475 58.4871C20.3928 60.4191 22.4967 62.5316 24.4121 63.4723C25.6771 64.0934 26.3658 64.2142 28.6429 64.2142C30.9541 64.2142 31.6193 64.094 33.0716 63.4137C39.6473 60.3333 41.0286 51.5432 35.702 46.6788C34.2055 45.3121 33.2391 44.7851 31.3071 44.2824C29.26 43.7497 28.2941 43.7476 26.1255 44.2721ZM31.7646 50.0971C33.9084 51.831 34.4467 54.0517 33.298 56.4228C31.5108 60.1123 26.1216 60.1585 24.254 56.5007C22.9083 53.8645 24.0657 50.6618 26.8297 49.3751C28.2074 48.7337 30.4921 49.068 31.7646 50.0971ZM129.88 72.9152C134.293 74.1394 137.575 76.0735 140.76 79.3266C143.97 82.6063 145.887 86.195 146.854 90.7339C147.504 93.7877 147.253 99.4442 146.35 102.112C145.049 105.952 143.108 109.221 140.828 111.414L139.79 112.412L139.619 110.757C139.287 107.542 137.592 105.058 134.87 103.799C133.582 103.203 133 103.168 124.29 103.168C113.911 103.168 113.554 103.226 111.349 105.247C109.755 106.708 109.01 108.24 108.715 110.663L108.5 112.42L107.597 111.569C107.1 111.101 106.038 109.792 105.237 108.662C98.7688 99.5248 99.8606 86.9771 107.815 79.0283C111.093 75.7534 115.697 73.347 120.289 72.5075C122.229 72.153 128.02 72.3991 129.88 72.9152ZM37.763 75.2198C38.7981 75.9062 39.0688 76.8689 39.0688 79.8605V82.645L37.3312 83.319C34.5839 84.3849 31.8858 84.8898 28.9106 84.8947C25.6157 84.9001 23.6417 84.5673 20.7101 83.5126L18.5191 82.7241V79.6513C18.5191 76.1837 18.8228 75.4345 20.4215 74.9574C20.9543 74.7983 24.9258 74.6941 29.2473 74.7258C35.5237 74.7717 37.2369 74.8711 37.763 75.2198ZM80.4968 75.6227C82.9525 77.2763 83.5886 80.6601 81.8672 82.915C80.7956 84.3188 79.4929 84.969 77.7507 84.969C76.0085 84.969 74.7057 84.3188 73.6341 82.915C71.9127 80.6601 72.5489 77.2763 75.0045 75.6227C76.4337 74.6603 79.0676 74.6603 80.4968 75.6227ZM121.792 77.6607C118.919 78.3821 116.22 80.572 114.909 83.2462C113.853 85.399 113.721 88.9375 114.609 91.3016C116.552 96.4713 122.588 99.2111 127.75 97.2652C133.523 95.0892 136.08 88.1523 133.122 82.6936C131.048 78.8686 125.969 76.6119 121.792 77.6607ZM126.399 83.1629C129.528 84.7603 130.217 88.4244 127.888 91.0751C126.785 92.3304 125.28 92.8724 123.464 92.668C121.914 92.4935 120.823 91.7893 119.806 90.3069C119.213 89.4436 119.118 88.9837 119.212 87.453C119.349 85.2262 120.208 83.8689 121.993 83.0587C123.635 82.3137 124.789 82.3409 126.399 83.1629ZM67.778 103.813C73.9057 105.173 80.1278 110.178 83.0226 116.077C85.2628 120.642 85.995 126.723 84.8793 131.499C83.9987 135.268 81.2224 140.31 78.7307 142.667L77.8359 143.513L77.6824 141.601C77.4282 138.438 75.7531 136.03 72.9154 134.748C71.6456 134.174 70.952 134.133 62.452 134.127C55.1532 134.122 53.0958 134.209 52.0741 134.57C48.9623 135.667 46.9367 138.506 46.9131 141.804L46.9001 143.632L45.0243 141.636C38.3408 134.524 37.22 123.158 42.3511 114.528C47.561 105.765 57.5684 101.548 67.778 103.813ZM60.5935 108.503C58.3378 108.855 56.3007 109.984 54.6915 111.772C51.1034 115.76 51.1666 121.665 54.8389 125.545C59.8516 130.841 68.5362 129.417 71.6051 122.797C72.7157 120.401 72.7888 116.93 71.7758 114.695C69.7181 110.154 65.3837 107.754 60.5935 108.503ZM133.576 109.138C134.382 109.943 134.413 110.091 134.413 113.061V116.147L132.631 116.855C127.991 118.699 121.807 118.911 117.227 117.382C113.385 116.1 113.626 116.406 113.763 112.989C113.959 108.124 113.942 108.132 124.661 108.229L132.739 108.302L133.576 109.138ZM65.3329 114.473C66.4598 115.275 67.4592 117.196 67.4691 118.58C67.4779 119.771 66.3296 122.002 65.3371 122.723C63.6672 123.937 60.9863 123.937 59.3584 122.723C57.8114 121.568 57.352 120.617 57.352 118.569C57.352 116.416 57.8549 115.467 59.6464 114.239C61.0329 113.289 63.8306 113.404 65.3329 114.473ZM13.0916 121.831C16.5699 123.669 16.6464 128.776 13.2246 130.712C8.32163 133.487 3.11711 127.26 6.81818 123.048C8.57155 121.052 10.8 120.62 13.0916 121.831ZM71.6142 139.982C72.4274 140.68 72.4664 140.84 72.564 143.862L72.6655 147.014L71.053 147.659C65.5308 149.867 58.673 149.872 53.554 147.672L52.0635 147.031V143.938C52.0635 141 52.1031 140.807 52.8601 140.05L53.657 139.254H62.2117H70.7662L71.6142 139.982ZM119.021 140.005C122.082 141.797 122.394 145.826 119.657 148.227C117.101 150.47 113.038 149.48 111.703 146.289C110.346 143.042 112.872 139.264 116.406 139.257C117.285 139.255 118.176 139.51 119.021 140.005Z" fill="#B62533"/>
</svg>
