<svg width="125" height="125" viewBox="0 0 125 125" fill="none" xmlns="http://www.w3.org/2000/svg">
<path fill-rule="evenodd" clip-rule="evenodd" d="M12.2094 1.26859C11.0641 1.56818 9.40631 2.23369 8.52534 2.74764C6.45265 3.9569 3.63418 6.84707 2.52736 8.8987C0.626708 12.4207 0.686614 10.9398 0.681488 54.6294C0.677324 90.4018 0.730182 94.7457 1.18188 95.6983C1.93503 97.285 4.29699 98.2087 5.96571 97.5682C6.26044 97.4551 11.57 93.1317 17.7646 87.9605L29.0279 78.5585L56.8987 78.5511C73.8457 78.5466 85.8954 78.4146 87.6427 78.2143C94.2557 77.4566 99.4836 73.038 101.097 66.8424C101.518 65.224 101.587 61.3431 101.584 39.4707C101.581 19.2133 101.492 13.6559 101.152 12.3826C99.6617 6.81086 94.611 2.03247 89.1307 1.00938C88.0344 0.804949 74.0709 0.694085 50.8485 0.70594C17.5183 0.722602 14.1078 0.772267 12.2094 1.26859ZM87.8108 8.72728C89.8492 9.16465 91.8893 10.6886 92.9384 12.5579L93.7393 13.9847L93.8325 38.8171C93.9036 57.7509 93.8322 63.9894 93.5311 65.0814C93.006 66.9859 90.3903 69.7008 88.6136 70.1853C87.732 70.4259 78.0904 70.5359 57.6996 70.5384C39.4849 70.5407 27.6347 70.6621 26.9456 70.8537C26.2204 71.0556 22.7702 73.7086 17.1749 78.3675L8.52534 85.5695L8.4398 50.8987C8.3847 28.4948 8.46863 15.6884 8.67751 14.7031C9.2897 11.8116 11.61 9.37612 14.3727 8.72471C16.1975 8.29439 85.8045 8.29696 87.8108 8.72728ZM25.9087 24.5761C23.3849 25.9552 23.5006 30.0107 26.099 31.244C27.0901 31.7144 29.6587 31.7679 51.2768 31.7679C77.2699 31.7679 76.4972 31.8169 77.7021 30.0963C77.9853 29.6919 78.2022 28.7207 78.2022 27.8565C78.2022 26.6236 78.0228 26.1301 77.2674 25.2845L76.3329 24.2381L51.559 24.1676C30.0854 24.1064 26.6685 24.1608 25.9087 24.5761ZM107.322 32.5007C105.941 33.4299 105.265 35.2563 105.754 36.7376C106.317 38.4447 107.371 39.158 110.007 39.6159C113.816 40.2775 116.196 42.3317 116.952 45.6118C117.28 47.0355 117.44 112.834 117.115 112.834C117.022 112.834 114.038 110.507 110.485 107.664C106.931 104.821 103.553 102.298 102.977 102.057C102.118 101.698 96.89 101.619 74.0049 101.619C52.8206 101.619 45.7632 101.524 44.7647 101.225C44.0022 100.996 42.8201 100.221 41.9558 99.3821C40.1051 97.5868 39.4394 95.574 39.4394 91.7722C39.4394 88.7096 38.9704 87.4709 37.5279 86.725C35.5289 85.691 33.1708 86.3872 32.2747 88.2758C31.5924 89.7138 31.5664 95.0078 32.2289 97.5519C33.6055 102.838 37.4907 107.02 42.6321 108.748C44.7073 109.445 44.9636 109.453 72.7562 109.62L100.787 109.79L109.906 117.113C114.921 121.141 119.39 124.578 119.837 124.749C121.1 125.235 122.754 124.814 123.836 123.731L124.814 122.754L124.897 84.2965C124.971 50.6248 124.92 45.5747 124.489 43.7143C123.181 38.0747 118.28 33.3184 112.544 32.1219C109.939 31.5785 108.541 31.6798 107.322 32.5007ZM26.4379 39.9132C25.8946 40.15 25.1235 40.7572 24.7246 41.2625C24.1281 42.0184 24.0263 42.4625 24.1499 43.7646C24.3521 45.8912 25.5576 47.0105 27.9628 47.3043C28.9011 47.419 36.5162 47.4667 44.8854 47.4103C61.4362 47.2992 61.0431 47.3437 62.2005 45.4452C63.4166 43.4503 62.5705 40.8155 60.4258 39.9193C58.8541 39.2624 27.9448 39.257 26.4379 39.9132Z" fill="#B62533"/>
</svg>
