<svg width="329" height="329" viewBox="0 0 329 329" fill="none" xmlns="http://www.w3.org/2000/svg">
<circle r="25.7031" transform="matrix(-1 0 0 1 303.297 25.7031)" fill="#9A0615"/>
<circle r="25.7031" transform="matrix(-1 0 0 1 303.297 118.234)" fill="#9A0615"/>
<circle r="25.7031" transform="matrix(-1 0 0 1 303.297 210.766)" fill="#9A0615"/>
<circle r="25.7031" transform="matrix(-1 0 0 1 303.297 303.297)" fill="#9A0615"/>
<circle r="25.7031" transform="matrix(-1 0 0 1 210.766 25.7031)" fill="#9A0615"/>
<circle r="25.7031" transform="matrix(-1 0 0 1 210.766 118.234)" fill="#9A0615"/>
<circle r="25.7031" transform="matrix(-1 0 0 1 210.766 210.766)" fill="#9A0615"/>
<circle r="25.7031" transform="matrix(-1 0 0 1 210.766 303.297)" fill="#9A0615"/>
<circle r="25.7031" transform="matrix(-1 0 0 1 118.234 25.7031)" fill="#9A0615"/>
<circle r="25.7031" transform="matrix(-1 0 0 1 118.234 118.234)" fill="#9A0615"/>
<circle r="25.7031" transform="matrix(-1 0 0 1 118.234 210.766)" fill="#9A0615"/>
<circle r="25.7031" transform="matrix(-1 0 0 1 118.234 303.297)" fill="#9A0615"/>
<circle r="25.7031" transform="matrix(-1 0 0 1 25.7031 25.7031)" fill="#9A0615"/>
<circle r="25.7031" transform="matrix(-1 0 0 1 25.7031 118.234)" fill="#9A0615"/>
<circle r="25.7031" transform="matrix(-1 0 0 1 25.7031 210.766)" fill="#9A0615"/>
<circle r="25.7031" transform="matrix(-1 0 0 1 25.7031 303.297)" fill="#9A0615"/>
</svg>
