<svg width="156" height="155" viewBox="0 0 156 155" fill="none" xmlns="http://www.w3.org/2000/svg">
<path fill-rule="evenodd" clip-rule="evenodd" d="M74.9987 1.30654L73.5234 2.57737V13.7283V24.8788L74.9987 26.1507C76.8841 27.7759 79.1008 27.7759 80.9861 26.1507L82.4614 24.8788V13.7283V2.57737L80.9861 1.30654C79.1008 -0.317676 76.8841 -0.317676 74.9987 1.30654ZM24.5332 22.255C23.0422 22.977 22.0474 25.4355 22.5001 27.2804C22.7194 28.1752 25.6447 31.5358 30.0727 35.9803C36.9613 42.8948 37.3829 43.2218 39.4092 43.2218C42.2031 43.2218 43.8178 41.5866 43.8178 38.7563C43.8178 36.8661 43.3646 36.2694 37.1143 29.9252C28.9286 21.6172 27.5659 20.7861 24.5332 22.255ZM126.626 22.6284C124.17 24.1789 112.809 35.9413 112.208 37.5555C111.149 40.4021 113.329 43.2218 116.59 43.2218C118.641 43.2218 119.028 42.9179 126.225 35.6648C134.079 27.7491 134.493 27.0565 133.14 24.0814C132.538 22.759 130.672 21.6272 129.098 21.6309C128.606 21.6319 127.493 22.0806 126.626 22.6284ZM68.7916 37.675C61.0392 39.3688 54.3614 43.2403 48.3851 49.5059C43.966 54.139 41.3777 58.4297 39.3088 64.5516C37.3898 70.2295 36.9255 80.0153 38.2815 86.2104C39.9113 93.6564 43.322 99.9247 49.2058 106.288C53.1969 110.605 55.3846 116.412 55.3846 122.691C55.3846 125.927 56.0476 128.075 57.8925 130.813C59.2673 132.854 59.4529 133.646 59.7384 138.698C60.1007 145.105 61.066 147.89 63.9119 150.741C67.3636 154.198 68.8636 154.61 77.9924 154.61C87.1213 154.61 88.6213 154.198 92.0729 150.741C94.9189 147.89 95.8842 145.105 96.2465 138.698C96.5319 133.646 96.7175 132.854 98.0924 130.813C99.9436 128.065 100.6 125.927 100.6 122.645C100.6 116.488 102.821 110.825 107.136 105.981C112.802 99.6203 116.114 93.422 117.699 86.2104C118.953 80.5094 118.561 70.2411 116.904 65.3589C112.097 51.1997 101.863 41.5787 87.7664 37.9673C82.8831 36.7165 73.8184 36.5764 68.7916 37.675ZM88.6113 47.6031C97.7007 51.0717 104.251 57.5854 107.775 66.6582C109.062 69.9714 109.211 71.0384 109.241 77.1914C109.271 83.0357 109.098 84.5536 108.06 87.5613C106.63 91.7061 103.998 95.8873 99.8322 100.628C94.9983 106.129 92.3553 112.251 91.8742 119.061C91.4941 124.436 91.3011 125.186 89.9793 126.419C88.9057 127.422 88.1702 127.486 78.0245 127.471C70.3568 127.459 66.9719 127.267 66.3799 126.812C64.964 125.723 64.3226 123.982 64.3226 121.228C64.3226 116.277 62.4046 109.51 59.8268 105.368C59.1958 104.354 57.0197 101.56 54.9913 99.1589C48.4676 91.4381 46.1322 84.8833 46.6017 75.6114C47.1842 64.1118 53.2142 54.6087 63.2963 49.3016C68.3988 46.6156 72.2926 45.8288 79.3069 46.0647C83.9115 46.2196 85.8079 46.5335 88.6113 47.6031ZM72.7253 55.3545C65.6412 57.0398 59.4067 62.4802 56.9172 69.1477C55.6795 72.4625 55.8315 74.2158 57.5008 75.8879C58.6359 77.025 61.1533 77.2551 62.7994 76.3724C63.3694 76.067 64.4309 74.467 65.158 72.8175C67.5229 67.4529 71.2432 64.5968 76.7027 63.9543C80.6186 63.493 82.4089 62.0283 82.4089 59.285C82.4089 55.453 78.677 53.9378 72.7253 55.3545ZM4.00162 73.0697C2.41171 73.3984 0.705078 75.6894 0.705078 77.4963C0.705078 78.31 1.27606 79.6409 1.97375 80.4535L3.24242 81.9313H14.3744H25.5059L26.7756 80.4535C28.3971 78.5655 28.3976 76.3451 26.7772 74.4559L25.5091 72.9781L15.3418 72.9028C9.74928 72.8617 4.64621 72.937 4.00162 73.0697ZM130.757 73.2167C127.899 74.4233 127.128 78.0304 129.209 80.4535L130.479 81.9313H141.61H152.742L154.011 80.4535C155.632 78.5655 155.633 76.3445 154.012 74.4559L152.744 72.9781L142.313 72.8596C136.577 72.7943 131.376 72.9555 130.757 73.2167ZM86.9304 139.904C86.9304 142.449 86.7249 143.048 85.3936 144.381C83.8789 145.898 83.7732 145.921 77.9924 145.921C72.2117 145.921 72.106 145.898 70.5913 144.381C69.26 143.048 69.0545 142.449 69.0545 139.904V136.967H77.9924H86.9304V139.904Z" fill="#B82534"/>
</svg>
