<svg width="616" height="144" viewBox="0 0 616 144" fill="none" xmlns="http://www.w3.org/2000/svg">
<g filter="url(#filter0_d_13_391)">
<path d="M66.24 106H49.824L22.368 64.432V106H5.952V38.608H22.368L49.824 80.368V38.608H66.24V106ZM94.5555 38.608V106H78.1395V38.608H94.5555ZM151.188 59.92C149.972 57.68 148.212 55.984 145.908 54.832C143.668 53.616 141.012 53.008 137.94 53.008C132.628 53.008 128.372 54.768 125.172 58.288C121.972 61.744 120.372 66.384 120.372 72.208C120.372 78.416 122.036 83.28 125.364 86.8C128.756 90.256 133.396 91.984 139.284 91.984C143.316 91.984 146.708 90.96 149.46 88.912C152.276 86.864 154.324 83.92 155.604 80.08H134.772V67.984H170.484V83.248C169.268 87.344 167.188 91.152 164.244 94.672C161.364 98.192 157.684 101.04 153.204 103.216C148.724 105.392 143.668 106.48 138.036 106.48C131.38 106.48 125.428 105.04 120.18 102.16C114.996 99.216 110.932 95.152 107.988 89.968C105.108 84.784 103.668 78.864 103.668 72.208C103.668 65.552 105.108 59.632 107.988 54.448C110.932 49.2 114.996 45.136 120.18 42.256C125.364 39.312 131.284 37.84 137.94 37.84C146.004 37.84 152.788 39.792 158.292 43.696C163.86 47.6 167.54 53.008 169.332 59.92H151.188ZM237.945 38.608V106H221.529V78.256H195.993V106H179.577V38.608H195.993V65.008H221.529V38.608H237.945ZM298.276 38.608V51.76H280.42V106H264.004V51.76H246.148V38.608H298.276ZM343.274 93.328H364.778V106H326.858V38.608H343.274V93.328ZM404.48 106.672C398.144 106.672 392.32 105.2 387.008 102.256C381.76 99.312 377.568 95.216 374.432 89.968C371.36 84.656 369.824 78.704 369.824 72.112C369.824 65.52 371.36 59.6 374.432 54.352C377.568 49.104 381.76 45.008 387.008 42.064C392.32 39.12 398.144 37.648 404.48 37.648C410.816 37.648 416.608 39.12 421.856 42.064C427.168 45.008 431.328 49.104 434.336 54.352C437.408 59.6 438.944 65.52 438.944 72.112C438.944 78.704 437.408 84.656 434.336 89.968C431.264 95.216 427.104 99.312 421.856 102.256C416.608 105.2 410.816 106.672 404.48 106.672ZM404.48 91.696C409.856 91.696 414.144 89.904 417.344 86.32C420.608 82.736 422.24 78 422.24 72.112C422.24 66.16 420.608 61.424 417.344 57.904C414.144 54.32 409.856 52.528 404.48 52.528C399.04 52.528 394.688 54.288 391.424 57.808C388.224 61.328 386.624 66.096 386.624 72.112C386.624 78.064 388.224 82.832 391.424 86.416C394.688 89.936 399.04 91.696 404.48 91.696ZM492.813 59.92C491.597 57.68 489.837 55.984 487.533 54.832C485.293 53.616 482.637 53.008 479.565 53.008C474.253 53.008 469.997 54.768 466.797 58.288C463.597 61.744 461.997 66.384 461.997 72.208C461.997 78.416 463.661 83.28 466.989 86.8C470.381 90.256 475.021 91.984 480.909 91.984C484.941 91.984 488.333 90.96 491.085 88.912C493.901 86.864 495.949 83.92 497.229 80.08H476.397V67.984H512.109V83.248C510.893 87.344 508.813 91.152 505.869 94.672C502.989 98.192 499.309 101.04 494.829 103.216C490.349 105.392 485.293 106.48 479.661 106.48C473.005 106.48 467.053 105.04 461.805 102.16C456.621 99.216 452.557 95.152 449.613 89.968C446.733 84.784 445.293 78.864 445.293 72.208C445.293 65.552 446.733 59.632 449.613 54.448C452.557 49.2 456.621 45.136 461.805 42.256C466.989 39.312 472.909 37.84 479.565 37.84C487.629 37.84 494.413 39.792 499.917 43.696C505.485 47.6 509.165 53.008 510.957 59.92H492.813ZM537.618 38.608V106H521.202V38.608H537.618ZM609.803 106H593.387L565.931 64.432V106H549.515V38.608H565.931L593.387 80.368V38.608H609.803V106Z" fill="black"/>
<rect x="397" y="27" width="16" height="35" rx="8" fill="black" stroke="white" stroke-width="6"/>
</g>
<defs>
<filter id="filter0_d_13_391" x="1.952" y="24" width="611.85" height="90.672" filterUnits="userSpaceOnUse" color-interpolation-filters="sRGB">
<feFlood flood-opacity="0" result="BackgroundImageFix"/>
<feColorMatrix in="SourceAlpha" type="matrix" values="0 0 0 0 0 0 0 0 0 0 0 0 0 0 0 0 0 0 127 0" result="hardAlpha"/>
<feOffset dy="4"/>
<feGaussianBlur stdDeviation="2"/>
<feComposite in2="hardAlpha" operator="out"/>
<feColorMatrix type="matrix" values="0 0 0 0 0 0 0 0 0 0 0 0 0 0 0 0 0 0 0.25 0"/>
<feBlend mode="normal" in2="BackgroundImageFix" result="effect1_dropShadow_13_391"/>
<feBlend mode="normal" in="SourceGraphic" in2="effect1_dropShadow_13_391" result="shape"/>
</filter>
</defs>
</svg>
